<?xml version="1.0" encoding="UTF-8" standalone="no"?>
<!-- Created with Inkscape (http://www.inkscape.org/) -->

<svg
   version="1.1"
   id="svg2"
   xml:space="preserve"
   width="1127.1217"
   height="610.51062"
   viewBox="0 0 1127.1217 610.51062"
   sodipodi:docname="logo1.svg"
   inkscape:version="1.2.2 (732a01da63, 2022-12-09)"
   xmlns:inkscape="http://www.inkscape.org/namespaces/inkscape"
   xmlns:sodipodi="http://sodipodi.sourceforge.net/DTD/sodipodi-0.dtd"
   xmlns="http://www.w3.org/2000/svg"
   xmlns:svg="http://www.w3.org/2000/svg"><defs
     id="defs6"><rect
       x="210.31941"
       y="399.01721"
       width="1181.3268"
       height="744.96313"
       id="rect316" /><rect
       x="210.31941"
       y="400.98279"
       width="1.965602"
       height="21.621622"
       id="rect310" /><rect
       x="216.21622"
       y="400.98279"
       width="1161.6708"
       height="737.10071"
       id="rect304" /></defs><sodipodi:namedview
     id="namedview4"
     pagecolor="#ffffff"
     bordercolor="#666666"
     borderopacity="1.0"
     inkscape:pageshadow="2"
     inkscape:pageopacity="0.0"
     inkscape:pagecheckerboard="false"
     inkscape:showpageshadow="true"
     inkscape:deskcolor="#d1d1d1"
     showgrid="false"
     inkscape:lockguides="false"
     showguides="true"
     borderlayer="true"
     showborder="false"
     inkscape:zoom="0.50875"
     inkscape:cx="554.29975"
     inkscape:cy="284.02948"
     inkscape:window-width="1920"
     inkscape:window-height="1001"
     inkscape:window-x="-9"
     inkscape:window-y="-9"
     inkscape:window-maximized="1"
     inkscape:current-layer="g10" /><g
     id="g8"
     inkscape:groupmode="layer"
     inkscape:label="ink_ext_XXXXXX"
     transform="matrix(1.3333333,0,0,-1.3333333,-244.92792,1179.119)"><g
       id="g10"
       transform="scale(0.1)"><path
         d="M 12000,0 H 0 V 12000 H 12000 V 0"
         style="fill:#e8e3de;fill-opacity:0;stroke:none"
         id="path12" /><path
         d="M 9169.42,5682.59 6153.45,8661.11 c -85.06,84 -221.86,84 -306.92,0 L 2830.56,5682.59"
         style="fill:none;stroke:#bccc69;stroke-width:240;stroke-linecap:round;stroke-linejoin:miter;stroke-miterlimit:10;stroke-dasharray:none;stroke-opacity:1"
         id="path14" /><path
         d="M 8148.07,6691.26 V 8000.21"
         style="fill:none;stroke:#bccc69;stroke-width:240;stroke-linecap:round;stroke-linejoin:miter;stroke-miterlimit:10;stroke-dasharray:none;stroke-opacity:1"
         id="path16" /><path
         d="m 5882.41,6613.92 h -360.96 c -31.71,0 -57.42,25.7 -57.42,57.41 v 360.96 c 0,31.71 25.71,57.41 57.42,57.41 h 360.96 c 31.71,0 57.41,-25.7 57.41,-57.41 v -360.96 c 0,-31.71 -25.7,-57.41 -57.41,-57.41"
         style="fill:#bccc69;fill-opacity:1;fill-rule:nonzero;stroke:none"
         id="path18" /><path
         d="m 6478.54,6613.92 h -360.97 c -31.71,0 -57.41,25.7 -57.41,57.41 v 360.96 c 0,31.71 25.7,57.41 57.41,57.41 h 360.97 c 31.7,0 57.41,-25.7 57.41,-57.41 v -360.96 c 0,-31.71 -25.71,-57.41 -57.41,-57.41"
         style="fill:#bccc69;fill-opacity:1;fill-rule:nonzero;stroke:none"
         id="path20" /><path
         d="m 6478.54,6017.79 h -360.97 c -31.71,0 -57.41,25.71 -57.41,57.42 v 360.96 c 0,31.71 25.7,57.41 57.41,57.41 h 360.97 c 31.7,0 57.41,-25.7 57.41,-57.41 v -360.96 c 0,-31.71 -25.71,-57.42 -57.41,-57.42"
         style="fill:#bccc69;fill-opacity:1;fill-rule:nonzero;stroke:none"
         id="path22" /><path
         d="m 5882.41,6017.79 h -360.96 c -31.71,0 -57.42,25.71 -57.42,57.42 v 360.96 c 0,31.71 25.71,57.41 57.42,57.41 h 360.96 c 31.71,0 57.41,-25.7 57.41,-57.41 v -360.96 c 0,-31.71 -25.7,-57.42 -57.41,-57.42"
         style="fill:#bccc69;fill-opacity:1;fill-rule:nonzero;stroke:none"
         id="path24" /><g
         id="g26"
         transform="scale(10)"><text
           transform="matrix(1,0,0,-1,173.027,428.197)"
           style="font-variant:normal;font-weight:bold;font-size:115px;font-family:CormorantGaramond;-inkscape-font-specification:CormorantGaramond-Bold;writing-mode:lr-tb;fill:#787179;fill-opacity:1;fill-rule:nonzero;stroke:none"
           id="text30"><tspan
             x="0 83.948196 150.30173 212.40173 254.60634 341.54489 428.94327 458.72745 549.46185 640.42572 722.76459 784.86523"
             y="0"
             sodipodi:role="line"
             id="tspan28">DESIGN HOUSE</tspan></text></g><text
         xml:space="preserve"
         transform="matrix(7.5000002,0,0,-7.5000002,0,12000)"
         id="text302"
         style="white-space:pre;shape-inside:url(#rect304);fill:#000000" /><text
         xml:space="preserve"
         transform="matrix(7.5000002,0,0,-7.5000002,0,12000)"
         id="text308"
         style="white-space:pre;shape-inside:url(#rect310);fill:#000000" /><text
         xml:space="preserve"
         transform="matrix(7.5000002,0,0,-7.5000002,0,12000)"
         id="text314"
         style="white-space:pre;shape-inside:url(#rect316);fill:#000000" /></g></g></svg>
